# Blender v2.74 (sub 0) OBJ File: ''
# www.blender.org
mtllib pirate-ship-giant.mtl
o Mast1
v -0.311054 2.562455 0.000000
v -0.311054 0.464683 0.000000
v -0.408873 2.562455 -0.030701
v -0.408873 2.562455 0.030701
v -0.408873 0.464683 -0.030701
v -0.408873 0.464683 0.030701
vt 0.000000 1.000000
vt 0.000000 0.000000
vt 1.000000 0.000000
vt 1.000000 1.000000
vn -1.000000 0.000000 0.000000
vn 0.000000 1.000000 0.000000
vn 0.000000 -1.000000 0.000000
vn 0.299500 0.000000 0.954100
vn 0.299500 0.000000 -0.954100
usemtl 514630
s 1
f 3/1/1 5/2/1 6/3/1 4/4/1
f 3/1/2 4/2/2 1/3/2
f 6/1/3 5/2/3 2/3/3
f 4/1/4 6/2/4 2/3/4 1/4/4
f 1/1/5 2/2/5 5/3/5 3/4/5
o Sail2
v 1.062779 2.061735 0.000000
v 1.481574 1.140769 0.000000
v 1.062779 0.616048 0.000000
v 1.361040 1.140769 -0.559764
v 1.361040 1.140769 0.559764
v 0.942245 0.616048 -0.500000
v 0.942245 0.616048 0.500000
v 0.942245 2.061735 0.500000
v 0.942245 2.061735 -0.500000
vt 0.000000 1.000000
vt 0.000000 0.000000
vt 1.000000 0.000000
vt 1.000000 1.000000
vn -0.781600 0.623800 0.000000
vn 0.000000 1.000000 0.000000
vn 0.000000 -1.000000 0.000000
vn 0.764800 -0.620300 0.174000
vn 0.764800 -0.620300 -0.174000
vn -0.910300 -0.413900 0.000000
vn 0.889000 0.410800 0.202200
vn 0.889000 0.410800 -0.202200
usemtl b0b0b0
s 1
f 10/5/6 12/6/6 13/7/6 11/8/6
f 15/5/7 14/6/7 7/7/7
f 13/5/8 12/6/8 9/7/8
f 11/5/9 13/6/9 9/7/9 8/8/9
f 8/5/10 9/6/10 12/7/10 10/8/10
f 10/6/11 11/6/11 14/6/11 15/6/11
f 11/6/12 8/6/12 7/6/12 14/6/12
f 8/6/13 10/6/13 15/6/13 7/6/13
o Mast0
v -1.400854 2.269299 0.000000
v -1.400854 0.464683 0.000000
v -1.498673 2.269299 -0.030701
v -1.498673 2.269299 0.030701
v -1.498673 0.464683 -0.030701
v -1.498673 0.464683 0.030701
vt 0.000000 1.000000
vt 0.000000 0.000000
vt 1.000000 0.000000
vt 1.000000 1.000000
vn -1.000000 0.000000 0.000000
vn 0.000000 1.000000 0.000000
vn 0.000000 -1.000000 0.000000
vn 0.299500 0.000000 0.954100
vn 0.299500 0.000000 -0.954100
usemtl 514630
s 1
f 18/9/14 20/10/14 21/11/14 19/12/14
f 18/9/15 19/10/15 16/11/15
f 21/9/16 20/10/16 17/11/16
f 19/9/17 21/10/17 17/11/17 16/12/17
f 16/9/18 17/10/18 20/11/18 18/12/18
o Mast2
v 0.918646 2.269299 0.000000
v 0.918646 0.464683 0.000000
v 0.820827 2.269299 -0.030701
v 0.820827 2.269299 0.030701
v 0.820827 0.464683 -0.030701
v 0.820827 0.464683 0.030701
vt 0.000000 1.000000
vt 0.000000 0.000000
vt 1.000000 0.000000
vt 1.000000 1.000000
vn -1.000000 0.000000 0.000000
vn 0.000000 1.000000 0.000000
vn 0.000000 -1.000000 0.000000
vn 0.299500 0.000000 0.954100
vn 0.299500 0.000000 -0.954100
usemtl 514630
s 1
f 24/13/19 26/14/19 27/15/19 25/16/19
f 24/13/20 25/14/20 22/15/20
f 27/13/21 26/14/21 23/15/21
f 25/13/22 27/14/22 23/15/22 22/16/22
f 22/13/23 23/14/23 26/15/23 24/16/23
o Sail0
v -1.256721 2.061735 0.000000
v -0.837926 1.140769 0.000000
v -1.256721 0.616048 0.000000
v -0.958460 1.140769 -0.559764
v -0.958460 1.140769 0.559764
v -1.377255 0.616048 -0.500000
v -1.377255 0.616048 0.500000
v -1.377255 2.061735 0.500000
v -1.377255 2.061735 -0.500000
vt 0.000000 1.000000
vt 0.000000 0.000000
vt 1.000000 0.000000
vt 1.000000 1.000000
vn -0.781600 0.623800 0.000000
vn 0.000000 1.000000 0.000000
vn 0.000000 -1.000000 0.000000
vn 0.764800 -0.620300 0.174000
vn 0.764800 -0.620300 -0.174000
vn -0.910300 -0.413900 0.000000
vn 0.889000 0.410800 0.202200
vn 0.889000 0.410800 -0.202200
usemtl b0b0b0
s 1
f 31/17/24 33/18/24 34/19/24 32/20/24
f 36/17/25 35/18/25 28/19/25
f 34/17/26 33/18/26 30/19/26
f 32/17/27 34/18/27 30/19/27 29/20/27
f 29/17/28 30/18/28 33/19/28 31/20/28
f 31/18/29 32/18/29 35/18/29 36/18/29
f 32/18/30 29/18/30 28/18/30 35/18/30
f 29/18/31 31/18/31 36/18/31 28/18/31
o Hull
v 2.518636 0.701210 0.000000
v 2.030310 -0.144100 0.000000
v 1.600688 0.491813 0.588200
v 1.600688 0.491813 -0.588200
v 1.098135 -0.144100 0.437882
v 1.098135 -0.144100 -0.437882
v -1.899827 0.491813 -0.588200
v -1.899827 0.491813 0.588200
v -1.896457 -0.144100 -0.437882
v -1.896457 -0.144100 0.437882
v -2.735658 0.491139 -0.588200
v -2.542330 -0.144774 -0.325489
v -2.542330 -0.144774 0.325489
v -2.735658 0.491139 0.588200
v -2.264078 0.834280 -0.588200
v -2.264078 0.834280 0.588200
v -2.799141 0.833606 -0.588200
v -2.799141 0.833606 0.588200
v -1.821425 -0.344143 -0.340806
v 0.971642 -0.344143 -0.340806
v 0.971642 -0.344143 0.340806
v -1.821425 -0.344143 0.340806
v -2.324111 -0.344667 0.253330
v -2.324111 -0.344667 -0.253330
v 1.697160 -0.344143 0.000000
vt 1.000000 0.635239
vt 0.776682 -0.000674
vt 0.223317 -0.000674
vt 0.000000 0.635239
vt -1.399827 1.000000
vt -1.399827 0.000000
vt 2.100688 0.000000
vt 2.100688 1.000000
vt 2.321425 0.210297
vt 2.321425 0.789703
vt -0.471642 0.789703
vt -0.471642 0.210297
vt 2.399827 0.635913
vt 2.396457 0.000000
vt -0.598135 0.000000
vt -1.100688 0.635913
vt 2.100688 0.635913
vt 1.598135 0.000000
vt -1.396457 0.000000
vt -1.399827 0.635913
vt 3.042330 -0.000674
vt 3.235658 0.635239
vt 2.824111 0.284656
vt 2.824111 0.715344
vt -2.235658 0.635239
vt -2.042330 -0.000674
vt 2.764078 0.000000
vt 2.764078 1.000000
vt 3.299141 1.000000
vt 3.299141 0.000000
vt -1.764078 1.000000
vt -1.764078 0.000000
vt 3.299141 0.977706
vt 2.764078 0.978380
vt 0.000000 0.977706
vt 1.000000 0.977706
vt -1.764078 0.978380
vt -2.299141 0.977706
vt -1.530310 0.000000
vt -2.018636 0.845310
vt -1.197160 0.500000
vt 3.018636 0.845310
vt 2.530310 0.000000
vt -1.100688 1.000000
vt -1.100688 0.000000
vt -2.018636 0.500000
vt 1.471642 -0.200043
vt -1.321425 -0.200043
vt 2.321425 -0.200043
vt -0.471642 -0.200043
vt -1.824112 -0.200567
vt -2.042330 0.223317
vt -2.042330 0.776682
vt -1.824112 0.715344
vt -1.824112 0.284656
vt 2.824111 -0.200567
vt 2.197160 -0.200043
vt -1.197160 -0.200043
vn -0.956800 -0.290900 0.000000
vn 0.000000 1.000000 0.000000
vn 0.000000 -1.000000 -0.000000
vn 0.000500 -1.000000 0.000000
vn 0.000000 -0.230000 0.973200
vn 0.000000 -0.230000 -0.973200
vn -0.071400 -0.318100 -0.945400
vn 0.001000 -1.000000 0.000000
vn -0.071400 -0.318100 0.945400
vn -0.001300 1.000000 0.000000
vn 0.685000 0.728600 0.000000
vn -0.000000 0.000000 -1.000000
vn -0.983200 -0.182300 0.000000
vn -0.000000 0.000000 1.000000
vn 0.478800 -0.399600 0.781700
vn 0.478800 -0.399600 -0.781700
vn -0.222400 0.975000 0.000000
vn 0.000000 -0.436600 -0.899700
vn 0.000000 -0.436600 0.899700
vn -0.150200 -0.476700 0.866200
vn -0.675500 -0.737400 0.000000
vn -0.150200 -0.476700 -0.866200
vn 0.347000 -0.577900 -0.738700
vn 0.347000 -0.577900 0.738700
usemtl 6b551d
s 1
f 47/21/32 48/22/32 49/23/32
f 47/21/32 49/23/32 50/24/32
f 43/25/33 44/26/33 39/27/33
f 43/25/33 39/27/33 40/28/33
f 58/29/34 55/30/35 56/31/34
f 58/29/34 56/31/34 57/32/34
f 44/33/36 46/34/36 41/35/36
f 44/33/36 41/35/36 39/36/36
f 40/37/37 42/38/37 45/39/37
f 40/37/37 45/39/37 43/40/37
f 43/33/38 45/34/38 48/41/38 47/42/38
f 55/30/35 58/29/34 59/43/39 60/44/39
f 46/39/40 44/40/40 50/45/40 49/46/40
f 52/47/41 51/48/41 53/49/41 54/50/41
f 44/26/42 43/25/42 51/51/42 52/52/42
f 43/33/43 47/42/43 53/53/43 51/54/43
f 47/21/44 50/24/44 54/55/44 53/56/44
f 50/45/45 44/40/45 52/57/45 54/58/45
f 39/36/46 41/35/46 38/59/46 37/60/46
f 57/32/34 56/31/34 61/61/34
f 42/38/47 40/37/47 37/62/47 38/63/47
f 40/64/48 39/65/48 37/66/48
f 45/39/49 42/38/49 56/67/49 55/68/49
f 41/35/50 46/34/50 58/69/50 57/70/50
f 46/39/51 49/46/51 59/71/51 58/68/51
f 49/72/52 48/73/52 60/74/52 59/75/52
f 48/41/53 45/34/53 55/69/53 60/76/53
f 42/38/54 38/63/54 61/77/54 56/67/54
f 38/59/55 41/35/55 57/70/55 61/78/55
o Sail1
v -0.166921 2.313011 0.000000
v 0.251874 1.238487 0.000000
v -0.166921 0.616048 0.000000
v 0.131340 1.238487 -0.607576
v 0.131340 1.238487 0.607576
v -0.287455 0.616048 -0.500000
v -0.287455 0.616048 0.500000
v -0.287455 2.313011 0.500000
v -0.287455 2.313011 -0.500000
vt 0.000000 1.000000
vt 0.000000 0.000000
vt 1.000000 0.000000
vt 1.000000 1.000000
vn -0.829700 0.558200 0.000000
vn 0.000000 1.000000 0.000000
vn 0.000000 -1.000000 0.000000
vn 0.809600 -0.559900 0.176200
vn 0.809600 -0.559900 -0.176200
vn -0.931700 -0.363100 0.000000
vn 0.909900 0.364500 0.198000
vn 0.909900 0.364500 -0.198000
usemtl b0b0b0
s 1
f 65/79/56 67/80/56 68/81/56 66/82/56
f 70/79/57 69/80/57 62/81/57
f 68/79/58 67/80/58 64/81/58
f 66/79/59 68/80/59 64/81/59 63/82/59
f 63/79/60 64/80/60 67/81/60 65/82/60
f 65/80/61 66/80/61 69/80/61 70/80/61
f 66/80/62 63/80/62 62/80/62 69/80/62
f 63/80/63 65/80/63 70/80/63 62/80/63
