# Blender v2.76 (sub 0) OBJ File: 'building.blend'
# www.blender.org
mtllib building.mtl
o Cube
v -6.424556 9.739214 -0.918583
v -2.893929 9.739214 3.525712
v 1.340356 9.871132 0.161921
v -2.190273 9.871132 -4.282374
v -6.240939 0.125965 -1.064450
v -2.710309 0.125965 3.379844
v 1.523973 0.257883 0.016051
v -2.006655 0.257883 -4.428243
vn -0.019100 0.999700 0.015200
vn 0.019100 -0.999700 -0.015200
vn -0.782800 -0.024400 0.621800
vn 0.622000 0.000000 0.783000
vn 0.782800 0.024400 -0.621800
vn -0.622000 -0.000000 -0.783000
usemtl Material
s off
f 1//1 2//1 3//1 4//1
f 5//2 8//2 7//2 6//2
f 1//3 5//3 6//3 2//3
f 2//4 6//4 7//4 3//4
f 3//5 7//5 8//5 4//5
f 5//6 1//6 4//6 8//6
